inDegrees=no
num_controls=7
num_derivatives=13
num_iterations=34
num_multipliers=7
num_parameters=0
num_slacks=7
num_states=26
objective=0.426447
objective_accelerations=0.059239
objective_balance=0.001134
objective_effort=0.015697
objective_height=0.344367
objective_ligament=0.006010
solver_duration=506.169525
status=Solve_Succeeded
success=true
DataType=double
version=3
OpenSimVersion=4.5
endheader
time	/jointset/ground_pelvis/pelvis_tilt/value	/jointset/ground_pelvis/pelvis_tx/value	/jointset/ground_pelvis/pelvis_ty/value	/jointset/hip_l/hip_flexion_l/value	/jointset/hip_l/hip_adduction_l/value	/jointset/hip_l/hip_rotation_l/value	/jointset/back/lumbar_extension/value	/jointset/patellofemoral_l/patellar_flexion_l/value	/jointset/knee_l/knee_flexion_l/value	/jointset/knee_l/knee_adduction_l/value	/jointset/knee_l/knee_rotation_l/value	/jointset/ankle_l/ankle_angle_l/value	/jointset/subtalar_l/subtalar_angle_l/value	/jointset/ground_pelvis/pelvis_tilt/speed	/jointset/ground_pelvis/pelvis_tx/speed	/jointset/ground_pelvis/pelvis_ty/speed	/jointset/hip_l/hip_flexion_l/speed	/jointset/hip_l/hip_adduction_l/speed	/jointset/hip_l/hip_rotation_l/speed	/jointset/back/lumbar_extension/speed	/jointset/patellofemoral_l/patellar_flexion_l/speed	/jointset/knee_l/knee_flexion_l/speed	/jointset/knee_l/knee_adduction_l/speed	/jointset/knee_l/knee_rotation_l/speed	/jointset/ankle_l/ankle_angle_l/speed	/jointset/subtalar_l/subtalar_angle_l/speed	/forceset/tau_hip_flexion_l	/forceset/tau_hip_adduction_l	/forceset/tau_hip_rotation_l	/forceset/tau_knee_flexion_l	/forceset/tau_ankle_angle_l	/forceset/tau_subtalar_angle_l	/forceset/tau_lumbar_extension	lambda_cid13_p0	lambda_cid13_p1	lambda_cid13_p2	lambda_cid13_p3	lambda_cid13_p4	lambda_cid13_p5	lambda_cid14_p0	/jointset/ground_pelvis/pelvis_tilt/accel	/jointset/ground_pelvis/pelvis_tx/accel	/jointset/ground_pelvis/pelvis_ty/accel	/jointset/hip_l/hip_flexion_l/accel	/jointset/hip_l/hip_adduction_l/accel	/jointset/hip_l/hip_rotation_l/accel	/jointset/back/lumbar_extension/accel	/jointset/patellofemoral_l/patellar_flexion_l/accel	/jointset/knee_l/knee_flexion_l/accel	/jointset/knee_l/knee_adduction_l/accel	/jointset/knee_l/knee_rotation_l/accel	/jointset/ankle_l/ankle_angle_l/accel	/jointset/subtalar_l/subtalar_angle_l/accel	gamma_cid13_p0	gamma_cid13_p1	gamma_cid13_p2	gamma_cid13_p3	gamma_cid13_p4	gamma_cid13_p5	gamma_cid14_p0
1	-0.4578121101403626	-0.003059380403890601	0.5896025552618613	1.718200528979945	-0.3464997700066523	0.1446935375827128	-0.4362577855678955	1.519914324622986	1.519914324623196	0.0558203191990846	-0.17440632905035	0.4349804741962462	0.2492177884991316	-0.1356886638105733	0.005684485949056041	0.04484856253195333	-0.01485368361758557	-0.004387087452327685	-0.05240423928898889	-0.001476521183471102	-0.1809716816488227	-0.1809716816488278	-0.02393124500501864	-0.0002509045407530742	-0.0465922628290371	-0.03534876877265582	-0.2394261691101127	0.08481116255427501	-0.01086212549830487	-0.2964779463502205	-0.01028039636484797	-0.01904521648320101	0.2087942419655668	-39.88762020879955	26.54434966823888	-17.4076346362905	2.363587067328578	-544.0834137200177	-27.60496980760056	-0.02361022620007056	1.430053761644547	0.2795904274082857	2.048784520552016	-6.751678047638766	-0.2711760620103585	-1.576348292890324	-0.03058424761811628	-5.643216456056297	-5.643216456056283	-0.913550393948669	-0.02518673003662398	-0.8126102006393395	-0.9192172472714555	-5.779671729034297e-09	-1.346375224764907e-07	-6.961427503647273e-08	-1.14390503539464e-08	-7.998847111241345e-09	-1.700377700866181e-07	4.767917112394131e-09
1.01	-0.4590981835625454	-0.002988542402764877	0.5901532528252527	1.717715502296797	-0.346556606006016	0.1440925814965209	-0.436273030070554	1.517822797795372	1.517822797795443	0.05553431798167939	-0.1744086326022381	0.4344738305569639	0.2488192779379692	-0.1215122236252496	0.008490969290997156	0.06528080508291038	-0.08214291959707629	-0.00697339884590056	-0.06778095875700017	-0.001561132844744752	-0.2373310893776733	-0.2373310893776705	-0.03326247953938671	-0.0002072655339629206	-0.05475414917281103	-0.04434697991194449	-0.2398877335959682	0.08477283803461963	-0.0108455390889921	-0.2953756135240311	-0.01083613408506115	-0.01897632311807289	0.2090533346637874	-40.01334156683044	26.46643723603693	-17.31525091794909	2.301523143412783	-543.8906774943162	-27.54925619441192	-0.02362939589042555	1.413508128752026	0.2823515880378952	2.038919928216606	-6.716237010243978	-0.2513357099932454	-1.517437640447064	0.004287350861575581	-5.631914840426579	-5.631914840425411	-0.9419445347028789	0.01949100079432825	-0.8206394603991007	-0.8891301422069455	-6.310666956421276e-09	-1.71852644571717e-07	-9.159365444985725e-08	-1.967613233153508e-08	-1.213145716522685e-08	-2.101844549888803e-07	5.411474721559538e-09
1.02	-0.4602420787865218	-0.002889404708129508	0.590907967975324	1.716557845126424	-0.346639100525709	0.1433380374423103	-0.4362887832945607	1.515167754508644	1.515167754508576	0.0551551975086584	-0.1744104294071072	0.4338850357324132	0.2483309838464237	-0.1072530241688925	0.0113444246509849	0.08565207986785801	-0.1493797810621537	-0.009518791517969426	-0.08312183289263353	-0.001578265456268586	-0.2936749734716095	-0.293674973471599	-0.04255509613463936	-0.0001495551368736804	-0.06302249988269239	-0.05330547484920835	-0.2403492980818354	0.08473451351494941	-0.01082895267957217	-0.2942732806978385	-0.01139187180527661	-0.01890742975297254	0.2093124273619921	-40.14096226349392	26.38576653160751	-17.21889670860277	2.228693371155089	-543.8073043220836	-27.4962039772054	-0.02365044032122874	1.446605615851161	0.2889848310176406	2.03659096735013	-6.741203144756111	-0.2629923177095688	-1.569179226414737	-0.01708843766781578	-5.640111729073425	-5.640111729073417	-0.9058268061255922	-0.02237245197680686	-0.8339030738607672	-0.9112740068664724	-6.900047218304549e-09	-2.068791848548965e-07	-1.106986855301142e-07	-2.742980229724571e-08	-1.602054563352555e-08	-2.44946371480686e-07	5.531521058915582e-09
1.03	-0.4612429878485835	-0.002761459413960055	0.5918659905537287	1.714728312122781	-0.3467468184115959	0.1424302442221789	-0.4363041460924097	1.511949475326564	1.511949475326576	0.05468345484263133	-0.1744116000164803	0.4332129618462711	0.2477533287106692	-0.09291715332411581	0.01425630383230032	0.1059323237997931	-0.2164953870378182	-0.01201602762216694	-0.09842616831453245	-0.001460477399867042	-0.3499658431941036	-0.3499658431940991	-0.05178360236109677	-8.447268831962234e-05	-0.07141619967113044	-0.06221746911916104	-0.2406797249185534	0.08472332247280755	-0.01078958769109721	-0.2928748037452519	-0.01200676999850683	-0.01881489422585281	0.2095092913730627	-40.26178841059266	26.27847829750995	-17.10098276463105	2.144510962772867	-543.4389478483212	-27.42106873860848	-0.02367841195203962	1.428821631464687	0.2940328265070267	2.020720299136364	-6.692025966933232	-0.2417522185932219	-1.509474964432709	0.03128493540613568	-5.621322761225358	-5.621322761226269	-0.9299061585282254	0.0209217285320794	-0.8457042640032554	-0.8798954638153075	-7.490023245845948e-09	-2.418833926706061e-07	-1.297743865253392e-07	-3.517853948732493e-08	-1.990714918768459e-08	-2.796533413560583e-07	5.646225444518466e-09
1.04	-0.462100189439664	-0.002604046655013684	0.5930262114100575	1.712228565730791	-0.346879241250889	0.1413697247949576	-0.4363173165080666	1.508168737813782	1.508168737813871	0.0541197183888379	-0.174412125174316	0.4324562307957112	0.2470868069668637	-0.07851152997238472	0.01723791760636874	0.1260917354525953	-0.2834224587319444	-0.0144597821990966	-0.1136670743106412	-0.001139789018981959	-0.4061666396121168	-0.4061666396121185	-0.0609538536924547	-2.046482934332759e-05	-0.07995393276628669	-0.07107879645933976	-0.2410101517552488	0.08471213143065773	-0.01075022270254422	-0.291476326792664	-0.01262166819174377	-0.01872235869875164	0.209706155384154	-40.38480192768712	26.16851611032875	-16.97915049443144	2.050098426059427	-543.1817419869732	-27.34949067999402	-0.02370835784709977	1.460556117241988	0.3029317495682705	2.012424511523551	-6.703496288448456	-0.2522960122560135	-1.5564933412567	0.02349162722929837	-5.622097068177254	-5.622097068177252	-0.8941758271057108	-0.02258736989236312	-0.8627097352043597	-0.9011406209116644	-8.455324290259946e-09	-2.730436666901901e-07	-1.443870562730137e-07	-4.178682069524901e-08	-2.353723252711342e-08	-3.039513293725878e-07	4.7233051916552e-09
1.05	-0.4628129474068176	-0.002416386132005445	0.594387309205342	1.709060648551333	-0.347035816831906	0.1401570698065396	-0.4363258890847759	1.503826673884675	1.503826673884737	0.0534647460430509	-0.1744120203197249	0.4316134739041094	0.2463320210169023	-0.0640252953821501	0.02031412513744211	0.1460964397609213	-0.350113781259601	-0.01684543244585881	-0.1288483423002869	-0.0005024004390100211	-0.4622079593029356	-0.462207959302927	-0.07002405662212303	4.083909827742496e-05	-0.08861404919989824	-0.07986167144611742	-0.2412972343964959	0.08471804400424977	-0.01069186044950308	-0.2897225306254406	-0.01330023810547248	-0.01860753760078764	0.209927490684703	-40.50102060902394	26.03125311816758	-16.83419615817925	1.898520842402343	-542.6533766799849	-27.24756634010905	-0.02374286204876013	1.444870026152445	0.3129462379974574	1.989780345535364	-6.644873317307624	-0.2301845087185173	-1.496621835592985	0.09471135797690858	-5.589422127513863	-5.589422127512328	-0.9109845467913734	0.02034973442680987	-0.8701689442764196	-0.8642849721221932	-9.432354241451213e-09	-3.04083817778645e-07	-1.588602562942023e-07	-4.835946265373074e-08	-2.715929960983194e-08	-3.279240367060286e-07	3.767959168839874e-09
1.06	-0.4633804004488216	-0.002197367337062313	0.5959475114347197	1.705227233530127	-0.3472159459109576	0.1387930664766722	-0.4363259179988587	1.498925342217064	1.498925342217095	0.05271956326380267	-0.1744113303337913	0.4306836145788034	0.2454899215101606	-0.04945054494238252	0.02350957199334737	0.165912622271191	-0.4165220270825916	-0.01917048180590733	-0.1439367426009116	0.0005689435247905636	-0.5180201873129426	-0.5180201873129239	-0.07899594038755396	9.656143939856572e-05	-0.09737441950698569	-0.08854150781535057	-0.2415843170377079	0.08472395657784283	-0.01063349819641154	-0.2879687344582164	-0.01397880801920772	-0.01849271650282687	0.2101488259852871	-40.61979135327561	25.89144270706193	-16.68541529006307	1.7371727542434	-542.2381463003421	-27.15032383811604	-0.0237794623454711	1.478259287148536	0.3267796145346774	1.974720151912299	-6.646880947515299	-0.2401758349132915	-1.537919803452496	0.110282703995251	-5.576278732014914	-5.576278732014905	-0.8745119942582458	-0.02370368719229253	-0.8827605098994876	-0.880532897402756	-9.507539249651857e-09	-3.330596387483621e-07	-1.659305137696031e-07	-5.559851369671168e-08	-3.005156090415393e-08	-3.500861334305217e-07	2.23949877997207e-09
1.07	-0.4638020543446878	-0.001945867372541796	0.5977047773117414	1.700731922055081	-0.3474189440095982	0.1372786121449253	-0.4363125095612567	1.493467113212129	1.493467113212074	0.05188530389164522	-0.1744100930121963	0.4296653628238373	0.2445615103452683	-0.03490683019434391	0.02680330857514601	0.1854935928094261	-0.4824148796439026	-0.02141164792255444	-0.15893027199485	0.002243098591045738	-0.5735794684619459	-0.5735794684619292	-0.08783676386440088	0.0001533464651447667	-0.106320829364193	-0.09712681356425669	-0.2417851635698022	0.08480462311027169	-0.01056571565912065	-0.2857080483932447	-0.01510683681690162	-0.01834045279683149	0.2103078677147342	-40.85749356578819	25.72480316255379	-16.4965003099252	1.755410155913613	-541.474073431789	-27.01286563788658	-0.02382818239295734	1.438435079640325	0.3325911522633293	1.942734834868181	-6.541682413298782	-0.2134302695878302	-1.476512223790846	0.2155350978708226	-5.538831138574436	-5.538831138574772	-0.8860246992518932	0.02068037931114578	-0.9073344900822423	-0.8453642078115803	-9.534753782161506e-09	-3.619256549245293e-07	-1.726069977053343e-07	-6.28730120314213e-08	-3.290500274164631e-08	-3.721519210800709e-07	6.805535843993426e-10
